<svg width="11" height="11" viewBox="0 0 11 11" fill="none" xmlns="http://www.w3.org/2000/svg">
<g clip-path="url(#clip0_28_312)">
<rect width="11" height="11" fill="white"/>
<path d="M0.00134277 2.0625C0.00134277 1.69783 0.146208 1.34809 0.404071 1.09023C0.661933 0.832366 1.01167 0.6875 1.37634 0.6875H9.62634C9.99102 0.6875 10.3408 0.832366 10.5986 1.09023C10.8565 1.34809 11.0013 1.69783 11.0013 2.0625V8.9375C11.0013 9.30217 10.8565 9.65191 10.5986 9.90977C10.3408 10.1676 9.99102 10.3125 9.62634 10.3125H1.37634C1.01167 10.3125 0.661933 10.1676 0.404071 9.90977C0.146208 9.65191 0.00134277 9.30217 0.00134277 8.9375V2.0625ZM0.688843 8.25V8.9375C0.688843 9.11984 0.761276 9.2947 0.890207 9.42364C1.01914 9.55257 1.19401 9.625 1.37634 9.625H9.62634C9.80868 9.625 9.98355 9.55257 10.1125 9.42364C10.2414 9.2947 10.3138 9.11984 10.3138 8.9375V6.53125L7.71716 5.19269C7.65268 5.16039 7.57969 5.14919 7.5085 5.16066C7.43731 5.17214 7.37153 5.20571 7.32047 5.25662L4.76984 7.80725L2.94109 6.589C2.87507 6.54504 2.79587 6.52527 2.71693 6.53304C2.63798 6.54081 2.56416 6.57564 2.50797 6.63162L0.688843 8.25ZM4.12634 3.78125C4.12634 3.50775 4.01769 3.24544 3.8243 3.05205C3.6309 2.85865 3.3686 2.75 3.09509 2.75C2.82159 2.75 2.55929 2.85865 2.36589 3.05205C2.17249 3.24544 2.06384 3.50775 2.06384 3.78125C2.06384 4.05475 2.17249 4.31706 2.36589 4.51045C2.55929 4.70385 2.82159 4.8125 3.09509 4.8125C3.3686 4.8125 3.6309 4.70385 3.8243 4.51045C4.01769 4.31706 4.12634 4.05475 4.12634 3.78125Z" fill="#5C7099"/>
</g>
<defs>
<clipPath id="clip0_28_312">
<rect width="11" height="11" fill="white"/>
</clipPath>
</defs>
</svg>
