<svg width="24" height="24" viewBox="0 0 24 24" fill="none" xmlns="http://www.w3.org/2000/svg">
<path fill-rule="evenodd" clip-rule="evenodd" d="M11.9999 6C10.379 6.00062 8.80183 6.52639 7.50475 7.49856C6.20766 8.47072 5.26045 9.83695 4.80498 11.3926C4.34952 12.9483 4.41031 14.6096 4.97827 16.1278C5.54622 17.6461 6.59076 18.9394 7.95543 19.8142C9.3201 20.6889 10.9315 21.098 12.5481 20.9801C14.1648 20.8623 15.6998 20.2238 16.9232 19.1604C18.1465 18.097 18.9925 16.6658 19.3342 15.0813C19.676 13.4968 19.4952 11.8442 18.8189 10.371C18.7453 10.1919 18.7438 9.99126 18.8148 9.81108C18.8858 9.63091 19.0237 9.48516 19.1996 9.40435C19.3756 9.32353 19.576 9.31391 19.7589 9.3775C19.9418 9.44109 20.093 9.57295 20.1809 9.7455C20.9924 11.5134 21.2093 13.4966 20.799 15.3981C20.3888 17.2995 19.3735 19.0169 17.9053 20.293C16.4371 21.569 14.595 22.335 12.6549 22.4762C10.7148 22.6175 8.78117 22.1263 7.14364 21.0764C5.50611 20.0264 4.25283 18.4742 3.57153 16.6522C2.89023 14.8301 2.81759 12.8364 3.36449 10.9697C3.91138 9.1029 5.04838 7.46357 6.60516 6.29723C8.16194 5.13089 10.0547 4.50033 11.9999 4.5V6Z" fill="white"/>
<path d="M12 8.19901V2.30101C12 2.22975 12.0204 2.15998 12.0586 2.09986C12.0969 2.03974 12.1514 1.99176 12.216 1.96154C12.2805 1.93132 12.3523 1.92011 12.423 1.92923C12.4936 1.93834 12.5602 1.9674 12.615 2.01301L16.155 4.96201C16.335 5.11201 16.335 5.38801 16.155 5.53801L12.615 8.48701C12.5602 8.53261 12.4936 8.56167 12.423 8.57079C12.3523 8.5799 12.2805 8.56869 12.216 8.53847C12.1514 8.50825 12.0969 8.46028 12.0586 8.40016C12.0204 8.34004 12 8.27026 12 8.19901Z" fill="white"/>
</svg>
