<svg width="11" height="11" viewBox="0 0 11 11" fill="none" xmlns="http://www.w3.org/2000/svg">
<g clip-path="url(#clip0_28_311)">
<path fill-rule="evenodd" clip-rule="evenodd" d="M10.6755 2.04394C10.7712 2.08214 10.8533 2.14814 10.9111 2.23343C10.969 2.31872 10.9999 2.41939 11 2.52244V8.47756C10.9999 8.58062 10.969 8.68128 10.9111 8.76657C10.8533 8.85186 10.7712 8.91787 10.6755 8.95606L5.69112 10.9498C5.56821 10.999 5.4311 10.999 5.30819 10.9498L0.323812 8.95606C0.228229 8.91776 0.146304 8.85171 0.0885916 8.76643C0.0308795 8.68115 2.39662e-05 8.58054 0 8.47756L0 2.52244C2.39662e-05 2.41946 0.0308795 2.31886 0.0885916 2.23357C0.146304 2.14829 0.228229 2.08224 0.323812 2.04394L5.11706 0.126501L5.12394 0.124439L5.30819 0.0501886C5.4313 0.000848594 5.5687 0.000848594 5.69181 0.0501886L5.87675 0.124439L5.88362 0.126501L10.6755 2.04394ZM7.15275 1.375L2.92188 3.06694L1.26912 2.40625L0.6875 2.63931V2.91431L5.15625 4.70181V10.1482L5.5 10.2857L5.84375 10.1482V4.7025L10.3125 2.915V2.64L9.73088 2.40694L5.5 4.09819L3.84725 3.4375L8.07812 1.74556L7.15275 1.375Z" fill="#5C7099"/>
</g>
<defs>
<clipPath id="clip0_28_311">
<rect width="11" height="11" fill="white"/>
</clipPath>
</defs>
</svg>
