<svg width="11" height="11" viewBox="0 0 11 11" fill="none" xmlns="http://www.w3.org/2000/svg">
<g clip-path="url(#clip0_62_4)">
<path d="M1.50144e-09 2.40625C1.50144e-09 2.13275 0.108649 1.87044 0.302046 1.67705C0.495443 1.48365 0.757745 1.375 1.03125 1.375H7.21875C7.49225 1.375 7.75456 1.48365 7.94795 1.67705C8.14135 1.87044 8.25 2.13275 8.25 2.40625V3.4375H8.95125C9.10576 3.43764 9.25826 3.47249 9.39749 3.53949C9.53672 3.60648 9.65911 3.70391 9.75562 3.82456L10.7738 5.09644C10.9203 5.27944 11.0001 5.50689 11 5.74131V7.21875C11 7.49225 10.8914 7.75456 10.698 7.94795C10.5046 8.14135 10.2423 8.25 9.96875 8.25H9.625C9.625 8.61467 9.48013 8.96441 9.22227 9.22227C8.96441 9.48013 8.61467 9.625 8.25 9.625C7.88533 9.625 7.53559 9.48013 7.27773 9.22227C7.01987 8.96441 6.875 8.61467 6.875 8.25H3.4375C3.4379 8.43328 3.40165 8.61478 3.33088 8.78385C3.26012 8.95291 3.15627 9.10613 3.02545 9.23448C2.89462 9.36283 2.73945 9.46374 2.56906 9.53126C2.39868 9.59878 2.21651 9.63155 2.03328 9.62766C1.85004 9.62376 1.66943 9.58327 1.50207 9.50857C1.33471 9.43387 1.18397 9.32646 1.05871 9.19267C0.93346 9.05887 0.836218 8.90138 0.772705 8.72946C0.709192 8.55754 0.68069 8.37466 0.688875 8.19156C0.487471 8.12068 0.313034 7.98902 0.189643 7.81477C0.0662514 7.64052 -1.1517e-05 7.43227 1.50144e-09 7.21875L1.50144e-09 2.40625ZM0.889625 7.53225C1.01393 7.32875 1.18904 7.16109 1.39776 7.04575C1.60647 6.93041 1.84161 6.87137 2.08005 6.87442C2.31849 6.87747 2.55204 6.94251 2.75774 7.06315C2.96343 7.18379 3.1342 7.35588 3.25325 7.5625H7.05925C7.18018 7.35369 7.35369 7.18018 7.5625 7.05925V2.40625C7.5625 2.31508 7.52628 2.22765 7.46182 2.16318C7.39735 2.09872 7.30992 2.0625 7.21875 2.0625H1.03125C0.940082 2.0625 0.852648 2.09872 0.788182 2.16318C0.723716 2.22765 0.6875 2.31508 0.6875 2.40625V7.21875C0.687446 7.28492 0.706489 7.34969 0.742342 7.4053C0.778196 7.46091 0.829336 7.50499 0.889625 7.53225ZM8.25 6.875C8.49136 6.87501 8.72846 6.93854 8.93748 7.05922C9.1465 7.1799 9.32007 7.35348 9.44075 7.5625H9.96875C10.0599 7.5625 10.1474 7.52628 10.2118 7.46182C10.2763 7.39735 10.3125 7.30992 10.3125 7.21875V5.74063C10.3124 5.66262 10.2857 5.58697 10.2369 5.52613L9.21937 4.25425C9.18723 4.21399 9.14644 4.18147 9.10003 4.1591C9.05362 4.13673 9.00277 4.12507 8.95125 4.125H8.25V6.875ZM2.0625 7.5625C1.88016 7.5625 1.7053 7.63493 1.57636 7.76386C1.44743 7.8928 1.375 8.06766 1.375 8.25C1.375 8.43234 1.44743 8.6072 1.57636 8.73614C1.7053 8.86507 1.88016 8.9375 2.0625 8.9375C2.24484 8.9375 2.4197 8.86507 2.54864 8.73614C2.67757 8.6072 2.75 8.43234 2.75 8.25C2.75 8.06766 2.67757 7.8928 2.54864 7.76386C2.4197 7.63493 2.24484 7.5625 2.0625 7.5625ZM8.25 7.5625C8.06766 7.5625 7.8928 7.63493 7.76386 7.76386C7.63493 7.8928 7.5625 8.06766 7.5625 8.25C7.5625 8.43234 7.63493 8.6072 7.76386 8.73614C7.8928 8.86507 8.06766 8.9375 8.25 8.9375C8.43234 8.9375 8.6072 8.86507 8.73614 8.73614C8.86507 8.6072 8.9375 8.43234 8.9375 8.25C8.9375 8.06766 8.86507 7.8928 8.73614 7.76386C8.6072 7.63493 8.43234 7.5625 8.25 7.5625Z" fill="#5C7099"/>
</g>
<defs>
<clipPath id="clip0_62_4">
<rect width="11" height="11" fill="white"/>
</clipPath>
</defs>
</svg>
