<svg width="11" height="11" viewBox="0 0 11 11" fill="none" xmlns="http://www.w3.org/2000/svg">
<path d="M1.18882 1.18882C1.24852 1.12897 1.31945 1.08148 1.39753 1.04908C1.47562 1.01668 1.55933 1 1.64387 1C1.72841 1 1.81211 1.01668 1.8902 1.04908C1.96828 1.08148 2.03921 1.12897 2.09891 1.18882L5.50017 4.59137L8.90143 1.18882C8.96118 1.12906 9.03213 1.08166 9.1102 1.04932C9.18828 1.01698 9.27196 1.00034 9.35647 1.00034C9.44098 1.00034 9.52466 1.01698 9.60274 1.04932C9.68081 1.08166 9.75176 1.12906 9.81151 1.18882C9.87127 1.24858 9.91867 1.31952 9.95101 1.3976C9.98335 1.47567 10 1.55936 10 1.64387C10 1.72838 9.98335 1.81206 9.95101 1.89013C9.91867 1.96821 9.87127 2.03915 9.81151 2.09891L6.40897 5.50017L9.81151 8.90143C9.87127 8.96118 9.91867 9.03213 9.95101 9.1102C9.98335 9.18828 10 9.27196 10 9.35647C10 9.44098 9.98335 9.52466 9.95101 9.60274C9.91867 9.68081 9.87127 9.75176 9.81151 9.81151C9.75176 9.87127 9.68081 9.91867 9.60274 9.95101C9.52466 9.98335 9.44098 10 9.35647 10C9.27196 10 9.18828 9.98335 9.1102 9.95101C9.03213 9.91867 8.96118 9.87127 8.90143 9.81151L5.50017 6.40897L2.09891 9.81151C2.03915 9.87127 1.96821 9.91867 1.89013 9.95101C1.81206 9.98335 1.72838 10 1.64387 10C1.55936 10 1.47567 9.98335 1.3976 9.95101C1.31952 9.91867 1.24858 9.87127 1.18882 9.81151C1.12906 9.75176 1.08166 9.68081 1.04932 9.60274C1.01698 9.52466 1.00034 9.44098 1.00034 9.35647C1.00034 9.27196 1.01698 9.18828 1.04932 9.1102C1.08166 9.03213 1.12906 8.96118 1.18882 8.90143L4.59137 5.50017L1.18882 2.09891C1.12897 2.03921 1.08148 1.96828 1.04908 1.8902C1.01668 1.81211 1 1.72841 1 1.64387C1 1.55933 1.01668 1.47562 1.04908 1.39753C1.08148 1.31945 1.12897 1.24852 1.18882 1.18882Z" fill="#5C7099"/>
</svg>
