<svg width="11" height="11" viewBox="0 0 11 11" fill="none" xmlns="http://www.w3.org/2000/svg">
<path d="M3.4375 0.6875C3.07283 0.6875 2.72309 0.832366 2.46523 1.09023C2.20737 1.34809 2.0625 1.69783 2.0625 2.0625V2.75H8.9375V2.0625C8.9375 1.69783 8.79263 1.34809 8.53477 1.09023C8.27691 0.832366 7.92717 0.6875 7.5625 0.6875H3.4375ZM7.5625 6.1875H3.4375C3.25516 6.1875 3.0803 6.25993 2.95136 6.38886C2.82243 6.5178 2.75 6.69266 2.75 6.875V8.9375C2.75 9.11984 2.82243 9.2947 2.95136 9.42364C3.0803 9.55257 3.25516 9.625 3.4375 9.625H7.5625C7.74484 9.625 7.9197 9.55257 8.04864 9.42364C8.17757 9.2947 8.25 9.11984 8.25 8.9375V6.875C8.25 6.69266 8.17757 6.5178 8.04864 6.38886C7.9197 6.25993 7.74484 6.1875 7.5625 6.1875Z" fill="#5C7099"/>
<path d="M0 4.8125C0 4.44783 0.144866 4.09809 0.402728 3.84023C0.660591 3.58237 1.01033 3.4375 1.375 3.4375H9.625C9.98967 3.4375 10.3394 3.58237 10.5973 3.84023C10.8551 4.09809 11 4.44783 11 4.8125V6.875C11 7.23967 10.8551 7.58941 10.5973 7.84727C10.3394 8.10513 9.98967 8.25 9.625 8.25H8.9375V6.875C8.9375 6.51033 8.79263 6.16059 8.53477 5.90273C8.27691 5.64487 7.92717 5.5 7.5625 5.5H3.4375C3.07283 5.5 2.72309 5.64487 2.46523 5.90273C2.20737 6.16059 2.0625 6.51033 2.0625 6.875V8.25H1.375C1.01033 8.25 0.660591 8.10513 0.402728 7.84727C0.144866 7.58941 0 7.23967 0 6.875V4.8125ZM1.71875 5.5C1.80992 5.5 1.89735 5.46378 1.96182 5.39932C2.02628 5.33485 2.0625 5.24742 2.0625 5.15625C2.0625 5.06508 2.02628 4.97765 1.96182 4.91318C1.89735 4.84872 1.80992 4.8125 1.71875 4.8125C1.62758 4.8125 1.54015 4.84872 1.47568 4.91318C1.41122 4.97765 1.375 5.06508 1.375 5.15625C1.375 5.24742 1.41122 5.33485 1.47568 5.39932C1.54015 5.46378 1.62758 5.5 1.71875 5.5Z" fill="#5C7099"/>
</svg>
