<svg width="11" height="11" viewBox="0 0 11 11" fill="none" xmlns="http://www.w3.org/2000/svg">
<g clip-path="url(#clip0_35_329)">
<path d="M2.0625 3.09375C2.0625 3.00258 2.09872 2.91515 2.16318 2.85068C2.22765 2.78622 2.31508 2.75 2.40625 2.75H6.53125C6.62242 2.75 6.70985 2.78622 6.77432 2.85068C6.83878 2.91515 6.875 3.00258 6.875 3.09375C6.875 3.18492 6.83878 3.27235 6.77432 3.33682C6.70985 3.40128 6.62242 3.4375 6.53125 3.4375H2.40625C2.31508 3.4375 2.22765 3.40128 2.16318 3.33682C2.09872 3.27235 2.0625 3.18492 2.0625 3.09375ZM2.0625 4.46875C2.0625 4.37758 2.09872 4.29015 2.16318 4.22568C2.22765 4.16122 2.31508 4.125 2.40625 4.125H6.53125C6.62242 4.125 6.70985 4.16122 6.77432 4.22568C6.83878 4.29015 6.875 4.37758 6.875 4.46875C6.875 4.55992 6.83878 4.64735 6.77432 4.71182C6.70985 4.77628 6.62242 4.8125 6.53125 4.8125H2.40625C2.31508 4.8125 2.22765 4.77628 2.16318 4.71182C2.09872 4.64735 2.0625 4.55992 2.0625 4.46875ZM2.0625 5.84375C2.0625 5.75258 2.09872 5.66515 2.16318 5.60068C2.22765 5.53622 2.31508 5.5 2.40625 5.5H6.53125C6.62242 5.5 6.70985 5.53622 6.77432 5.60068C6.83878 5.66515 6.875 5.75258 6.875 5.84375C6.875 5.93492 6.83878 6.02235 6.77432 6.08682C6.70985 6.15128 6.62242 6.1875 6.53125 6.1875H2.40625C2.31508 6.1875 2.22765 6.15128 2.16318 6.08682C2.09872 6.02235 2.0625 5.93492 2.0625 5.84375ZM2.0625 7.21875C2.0625 7.12758 2.09872 7.04015 2.16318 6.97568C2.22765 6.91122 2.31508 6.875 2.40625 6.875H6.53125C6.62242 6.875 6.70985 6.91122 6.77432 6.97568C6.83878 7.04015 6.875 7.12758 6.875 7.21875C6.875 7.30992 6.83878 7.39735 6.77432 7.46182C6.70985 7.52628 6.62242 7.5625 6.53125 7.5625H2.40625C2.31508 7.5625 2.22765 7.52628 2.16318 7.46182C2.09872 7.39735 2.0625 7.30992 2.0625 7.21875ZM2.0625 8.59375C2.0625 8.50258 2.09872 8.41515 2.16318 8.35068C2.22765 8.28622 2.31508 8.25 2.40625 8.25H6.53125C6.62242 8.25 6.70985 8.28622 6.77432 8.35068C6.83878 8.41515 6.875 8.50258 6.875 8.59375C6.875 8.68492 6.83878 8.77235 6.77432 8.83682C6.70985 8.90128 6.62242 8.9375 6.53125 8.9375H2.40625C2.31508 8.9375 2.22765 8.90128 2.16318 8.83682C2.09872 8.77235 2.0625 8.68492 2.0625 8.59375ZM7.90625 2.75C7.81508 2.75 7.72765 2.78622 7.66318 2.85068C7.59872 2.91515 7.5625 3.00258 7.5625 3.09375C7.5625 3.18492 7.59872 3.27235 7.66318 3.33682C7.72765 3.40128 7.81508 3.4375 7.90625 3.4375H8.59375C8.68492 3.4375 8.77235 3.40128 8.83682 3.33682C8.90128 3.27235 8.9375 3.18492 8.9375 3.09375C8.9375 3.00258 8.90128 2.91515 8.83682 2.85068C8.77235 2.78622 8.68492 2.75 8.59375 2.75H7.90625ZM7.90625 4.125C7.81508 4.125 7.72765 4.16122 7.66318 4.22568C7.59872 4.29015 7.5625 4.37758 7.5625 4.46875C7.5625 4.55992 7.59872 4.64735 7.66318 4.71182C7.72765 4.77628 7.81508 4.8125 7.90625 4.8125H8.59375C8.68492 4.8125 8.77235 4.77628 8.83682 4.71182C8.90128 4.64735 8.9375 4.55992 8.9375 4.46875C8.9375 4.37758 8.90128 4.29015 8.83682 4.22568C8.77235 4.16122 8.68492 4.125 8.59375 4.125H7.90625ZM7.90625 5.5C7.81508 5.5 7.72765 5.53622 7.66318 5.60068C7.59872 5.66515 7.5625 5.75258 7.5625 5.84375C7.5625 5.93492 7.59872 6.02235 7.66318 6.08682C7.72765 6.15128 7.81508 6.1875 7.90625 6.1875H8.59375C8.68492 6.1875 8.77235 6.15128 8.83682 6.08682C8.90128 6.02235 8.9375 5.93492 8.9375 5.84375C8.9375 5.75258 8.90128 5.66515 8.83682 5.60068C8.77235 5.53622 8.68492 5.5 8.59375 5.5H7.90625ZM7.90625 6.875C7.81508 6.875 7.72765 6.91122 7.66318 6.97568C7.59872 7.04015 7.5625 7.12758 7.5625 7.21875C7.5625 7.30992 7.59872 7.39735 7.66318 7.46182C7.72765 7.52628 7.81508 7.5625 7.90625 7.5625H8.59375C8.68492 7.5625 8.77235 7.52628 8.83682 7.46182C8.90128 7.39735 8.9375 7.30992 8.9375 7.21875C8.9375 7.12758 8.90128 7.04015 8.83682 6.97568C8.77235 6.91122 8.68492 6.875 8.59375 6.875H7.90625ZM7.90625 8.25C7.81508 8.25 7.72765 8.28622 7.66318 8.35068C7.59872 8.41515 7.5625 8.50258 7.5625 8.59375C7.5625 8.68492 7.59872 8.77235 7.66318 8.83682C7.72765 8.90128 7.81508 8.9375 7.90625 8.9375H8.59375C8.68492 8.9375 8.77235 8.90128 8.83682 8.83682C8.90128 8.77235 8.9375 8.68492 8.9375 8.59375C8.9375 8.50258 8.90128 8.41515 8.83682 8.35068C8.77235 8.28622 8.68492 8.25 8.59375 8.25H7.90625Z" fill="#5C7099"/>
<path d="M1.61838 0.444129C1.57986 0.405583 1.53273 0.376745 1.48088 0.359995C1.42902 0.343245 1.37393 0.339063 1.32014 0.347792C1.26636 0.356522 1.21541 0.377914 1.17152 0.410203C1.12763 0.442493 1.09204 0.484755 1.06769 0.533504L0.723937 1.221C0.69998 1.26881 0.687504 1.32154 0.6875 1.375V10.3125H0.34375C0.252582 10.3125 0.165148 10.3487 0.100682 10.4132C0.0362164 10.4777 0 10.5651 0 10.6563C0 10.7474 0.0362164 10.8349 0.100682 10.8993C0.165148 10.9638 0.252582 11 0.34375 11H10.6562C10.7474 11 10.8349 10.9638 10.8993 10.8993C10.9638 10.8349 11 10.7474 11 10.6563C11 10.5651 10.9638 10.4777 10.8993 10.4132C10.8349 10.3487 10.7474 10.3125 10.6562 10.3125H10.3125V1.375C10.3125 1.32154 10.3 1.26881 10.2761 1.221L9.93231 0.533504C9.90793 0.484879 9.87237 0.442733 9.82853 0.41053C9.78469 0.378326 9.73384 0.356985 9.68015 0.348261C9.62646 0.339536 9.57147 0.343677 9.51969 0.360343C9.46792 0.377009 9.42083 0.405725 9.38231 0.444129L8.9375 0.888942L8.49338 0.444129C8.46144 0.412117 8.42351 0.386719 8.38175 0.369389C8.33999 0.35206 8.29522 0.34314 8.25 0.34314C8.20478 0.34314 8.16001 0.35206 8.11825 0.369389C8.07649 0.386719 8.03856 0.412117 8.00662 0.444129L7.5625 0.888942L7.11838 0.444129C7.08644 0.412117 7.04851 0.386719 7.00675 0.369389C6.96499 0.35206 6.92022 0.34314 6.875 0.34314C6.82978 0.34314 6.78501 0.35206 6.74325 0.369389C6.70149 0.386719 6.66356 0.412117 6.63162 0.444129L6.1875 0.888942L5.74338 0.444129C5.71144 0.412117 5.67351 0.386719 5.63175 0.369389C5.58999 0.35206 5.54522 0.34314 5.5 0.34314C5.45478 0.34314 5.41001 0.35206 5.36825 0.369389C5.32649 0.386719 5.28856 0.412117 5.25662 0.444129L4.8125 0.888942L4.36838 0.444129C4.33644 0.412117 4.29851 0.386719 4.25675 0.369389C4.21499 0.35206 4.17022 0.34314 4.125 0.34314C4.07978 0.34314 4.03501 0.35206 3.99325 0.369389C3.95149 0.386719 3.91356 0.412117 3.88162 0.444129L3.4375 0.888942L2.99338 0.444129C2.96144 0.412117 2.92351 0.386719 2.88175 0.369389C2.83999 0.35206 2.79522 0.34314 2.75 0.34314C2.70478 0.34314 2.66001 0.35206 2.61825 0.369389C2.57649 0.386719 2.53856 0.412117 2.50662 0.444129L2.0625 0.888942L1.61838 0.444129ZM1.46919 1.26775L1.81981 1.61838C1.88428 1.68282 1.97169 1.71902 2.06284 1.71902C2.15399 1.71902 2.24141 1.68282 2.30588 1.61838L2.75 1.17357L3.19412 1.61838C3.22606 1.65039 3.26399 1.67579 3.30575 1.69312C3.34751 1.71045 3.39228 1.71937 3.4375 1.71937C3.48272 1.71937 3.52749 1.71045 3.56925 1.69312C3.61101 1.67579 3.64894 1.65039 3.68088 1.61838L4.125 1.17357L4.56912 1.61838C4.60106 1.65039 4.63899 1.67579 4.68075 1.69312C4.72251 1.71045 4.76728 1.71937 4.8125 1.71937C4.85772 1.71937 4.90249 1.71045 4.94425 1.69312C4.98601 1.67579 5.02394 1.65039 5.05588 1.61838L5.5 1.17357L5.94412 1.61838C5.97606 1.65039 6.01399 1.67579 6.05575 1.69312C6.09751 1.71045 6.14228 1.71937 6.1875 1.71937C6.23272 1.71937 6.27749 1.71045 6.31925 1.69312C6.36101 1.67579 6.39894 1.65039 6.43088 1.61838L6.875 1.17357L7.31912 1.61838C7.35106 1.65039 7.38899 1.67579 7.43075 1.69312C7.47251 1.71045 7.51728 1.71937 7.5625 1.71937C7.60772 1.71937 7.65249 1.71045 7.69425 1.69312C7.73601 1.67579 7.77394 1.65039 7.80588 1.61838L8.25 1.17357L8.69412 1.61838C8.72606 1.65039 8.76399 1.67579 8.80575 1.69312C8.84751 1.71045 8.89228 1.71937 8.9375 1.71937C8.98272 1.71937 9.02749 1.71045 9.06925 1.69312C9.11101 1.67579 9.14894 1.65039 9.18088 1.61838L9.53081 1.26775L9.625 1.45613V10.3125H1.375V1.45613L1.46919 1.26775Z" fill="#5C7099"/>
</g>
<defs>
<clipPath id="clip0_35_329">
<rect width="11" height="11" fill="white"/>
</clipPath>
</defs>
</svg>
