<svg width="11" height="11" viewBox="0 0 11 11" fill="none" xmlns="http://www.w3.org/2000/svg">
<g clip-path="url(#clip0_30_318)">
<path d="M5.62787 0.765157C5.5458 0.732263 5.4542 0.732263 5.37213 0.765157L1.26912 2.40622L2.92188 3.06691L7.15275 1.37497L5.62787 0.765157ZM8.07812 1.74553L3.84725 3.43747L5.5 4.09816L9.73088 2.40622L8.07812 1.74553ZM10.3125 2.91428L5.84375 4.70178V10.1482L10.3125 8.36066V2.91428ZM5.15625 10.1488V4.70109L0.6875 2.91428V8.36134L5.15625 10.1488ZM5.11706 0.126469C5.36289 0.0281561 5.63711 0.0281561 5.88294 0.126469L10.7841 2.08722C10.8478 2.11276 10.9025 2.15679 10.9409 2.21364C10.9794 2.2705 11 2.33757 11 2.40622V8.36134C10.9999 8.49872 10.9587 8.63292 10.8816 8.74664C10.8045 8.86036 10.6951 8.94838 10.5676 8.99934L5.62787 10.9752C5.5458 11.0081 5.4542 11.0081 5.37213 10.9752L0.433125 8.99934C0.305423 8.94849 0.195898 8.86051 0.118691 8.74679C0.0414849 8.63306 0.000141851 8.4988 0 8.36134L0 2.40622C1.59775e-05 2.33757 0.0205863 2.2705 0.0590611 2.21364C0.0975358 2.15679 0.152152 2.11276 0.215875 2.08722L5.11706 0.126469Z" fill="#5C7099"/>
</g>
<defs>
<clipPath id="clip0_30_318">
<rect width="11" height="11" fill="white"/>
</clipPath>
</defs>
</svg>
